<?xml version="1.0" standalone="no"?>
<!DOCTYPE svg PUBLIC "-//W3C//DTD SVG 20010904//EN"
 "http://www.w3.org/TR/2001/REC-SVG-20010904/DTD/svg10.dtd">
<svg version="1.0" xmlns="http://www.w3.org/2000/svg"
 width="1000.000000pt" height="1000.000000pt" viewBox="0 0 1000.000000 1000.000000"
 preserveAspectRatio="xMidYMid meet">
<metadata>
Created by potrace 1.11, written by Peter Selinger 2001-2013
</metadata>
<g transform="translate(0.000000,1000.000000) scale(0.100000,-0.100000)"
fill="#000000" stroke="none">
<path d="M2255 9968 c-3 -18 -55 -361 -116 -763 -60 -401 -124 -818 -140 -925
-16 -107 -38 -253 -49 -325 -11 -71 -33 -220 -50 -330 -17 -110 -39 -258 -50
-330 -11 -71 -33 -218 -49 -325 -17 -107 -93 -613 -171 -1125 -78 -511 -154
-1018 -171 -1125 -54 -357 -79 -524 -99 -655 -11 -71 -33 -218 -49 -325 -17
-107 -93 -613 -171 -1125 -77 -511 -161 -1063 -186 -1225 -84 -553 -93 -615
-118 -780 -14 -91 -39 -254 -56 -363 -16 -109 -30 -209 -30 -222 l0 -25 4250
0 4250 0 0 22 c0 19 -102 698 -150 998 -11 69 -67 436 -125 815 -58 380 -148
969 -200 1310 -52 341 -104 676 -115 745 -11 69 -67 433 -125 810 -114 750
-415 2715 -698 4560 -63 404 -117 735 -122 735 -5 0 -57 -74 -116 -165 -58
-91 -326 -505 -594 -920 -268 -415 -654 -1012 -857 -1327 l-369 -571 -122 -7
c-67 -3 -416 -5 -776 -3 l-655 3 -975 1497 c-537 824 -979 1498 -983 1498 -4
0 -10 -15 -13 -32z"/>
</g>
</svg>
